<svg xmlns="http://www.w3.org/2000/svg" viewBox="0 0 30 30" width="30" height="30">
	<defs>
		<clipPath clipPathUnits="userSpaceOnUse" id="cp1">
			<path d="M-42 -660L370 -660L370 187L-42 187Z" />
		</clipPath>
	</defs>
	<style>
		tspan { white-space:pre }
		.shp0 { fill: #3b5998 } 
		.shp1 { fill: #ffffff } 
	</style>
	<g id="Login with Email" clip-path="url(#cp1)">
		<g id="facebook (1)">
			<path id="Ellipse 1" class="shp0" d="M15.1 29.45C7.16 29.45 0.75 23.03 0.75 15.1C0.75 7.16 7.16 0.75 15.1 0.75C23.03 0.75 29.45 7.16 29.45 15.1C29.45 23.03 23.03 29.45 15.1 29.45Z" />
			<path id="Path 3" class="shp1" d="M18.7 15.66L16.14 15.66L16.14 25.04L12.27 25.04L12.27 15.66L10.42 15.66L10.42 12.36L12.27 12.36L12.27 10.23C12.27 8.7 12.99 6.32 16.18 6.32L19.05 6.33L19.05 9.53L16.97 9.53C16.63 9.53 16.14 9.7 16.14 10.43L16.14 12.37L19.04 12.37L18.7 15.66Z" />
		</g>
	</g>
</svg>