<svg xmlns="http://www.w3.org/2000/svg" viewBox="0 0 27 28" width="27" height="28">
	<defs>
		<clipPath clipPathUnits="userSpaceOnUse" id="cp1">
			<path d="M-234 -661L178 -661L178 186L-234 186Z" />
		</clipPath>
	</defs>
	<style>
		tspan { white-space:pre }
		.shp0 { fill: #2196f3 } 
		.shp1 { fill: #1e88e5 } 
		.shp2 { fill: #f44336 } 
		.shp3 { fill: #e53935 } 
		.shp4 { fill: #4caf50 } 
		.shp5 { fill: #43a047 } 
		.shp6 { fill: #ffc107 } 
		.shp7 { fill: #ffb300 } 
	</style>
	<g id="Login with Email" clip-path="url(#cp1)">
		<g id="google-symbol">
			<path id="Path 4" class="shp0" d="M25.99 11.67C26.1 11.67 26.2 11.77 26.2 11.88L26.2 14.1C26.2 14.93 26.12 15.74 25.97 16.52C24.83 22.63 19.45 27.24 13.01 27.2C5.77 27.15 -0.02 21.3 0 14.07C0.02 6.85 5.87 1 13.1 1C16.64 1 19.85 2.4 22.21 4.68C22.29 4.77 22.29 4.9 22.21 4.99L19.08 8.12C19 8.2 18.87 8.2 18.78 8.12C17.3 6.71 15.3 5.85 13.1 5.85C8.55 5.85 4.88 9.49 4.85 14.04C4.82 18.62 8.52 22.35 13.1 22.35C16.81 22.35 19.95 19.89 20.98 16.52L13.31 16.52C13.19 16.52 13.1 16.43 13.1 16.31L13.1 11.88C13.1 11.77 13.19 11.67 13.31 11.67L25.99 11.67L25.99 11.67Z" />
			<g id="Group 5">
				<path id="Path 5" class="shp1" d="M25.99 11.67L24.4 11.67C24.52 11.67 24.61 11.77 24.61 11.88L24.61 14.1C24.61 14.93 24.54 15.74 24.39 16.52C23.3 22.35 18.36 26.81 12.31 27.17C12.54 27.19 12.77 27.19 13.01 27.2C19.45 27.24 24.83 22.63 25.97 16.52C26.12 15.74 26.2 14.93 26.2 14.1L26.2 11.88C26.2 11.77 26.1 11.67 25.99 11.67Z" />
			</g>
			<path id="Path 6" class="shp2" d="M5.61 10.64L1.63 7.77C3.86 3.73 8.16 1 13.1 1C16.64 1 19.85 2.4 22.21 4.68C22.29 4.77 22.29 4.9 22.21 4.99L19.08 8.12C19 8.2 18.87 8.2 18.78 8.12C17.3 6.71 15.3 5.85 13.1 5.85C9.78 5.85 6.91 7.81 5.61 10.64L5.61 10.64Z" />
			<path id="Path 7" class="shp3" d="M4.46 9.81L5.61 10.64C6.8 8.06 9.29 6.2 12.24 5.89C12.26 5.89 12.28 5.89 12.31 5.89C12.05 5.86 11.78 5.85 11.52 5.85C8.52 5.85 5.9 7.43 4.46 9.81L4.46 9.81Z" />
			<path id="Path 8" class="shp3" d="M20.62 4.68C20.71 4.77 20.71 4.9 20.63 4.99L18.09 7.53C18.33 7.71 18.56 7.91 18.78 8.12C18.87 8.2 19 8.2 19.08 8.12L22.21 4.99C22.29 4.9 22.29 4.77 22.21 4.68C19.85 2.4 16.64 1 13.1 1C12.83 1 12.57 1.01 12.31 1.02C15.53 1.22 18.44 2.57 20.62 4.68Z" />
			<path id="Path 9" class="shp4" d="M22.71 23C20.31 25.58 16.89 27.2 13.1 27.2C7.97 27.2 3.53 24.25 1.38 19.96L5.44 17.17C6.66 20.21 9.63 22.35 13.1 22.35C15.27 22.35 17.25 21.5 18.73 20.13L22.71 23Z" />
			<path id="Path 10" class="shp5" d="M5.44 17.17L4.24 17.99C5.63 20.58 8.37 22.35 11.52 22.35C11.78 22.35 12.05 22.33 12.31 22.31C9.18 22.01 6.57 19.97 5.44 17.17Z" />
			<path id="Path 11" class="shp5" d="M13.1 27.2C16.89 27.2 20.31 25.58 22.71 23L21.73 22.3C19.49 25.09 16.12 26.94 12.31 27.17C12.57 27.19 12.83 27.2 13.1 27.2Z" />
			<path id="Path 12" class="shp6" d="M4.85 14.1C4.85 15.18 5.06 16.22 5.44 17.17L1.38 19.96C0.5 18.19 0 16.2 0 14.1C0 11.8 0.59 9.65 1.63 7.77L5.61 10.64C5.12 11.69 4.85 12.86 4.85 14.1L4.85 14.1Z" />
			<path id="Path 13" class="shp7" d="M4.24 17.99L5.44 17.17C5.06 16.22 4.85 15.18 4.85 14.1C4.85 12.86 5.12 11.69 5.61 10.64L4.46 9.81C3.71 11.04 3.28 12.49 3.27 14.04C3.26 15.47 3.61 16.82 4.24 17.99Z" />
		</g>
	</g>
</svg>