<svg xmlns="http://www.w3.org/2000/svg" viewBox="0 0 22 17" width="22" height="17">
	<defs>
		<clipPath clipPathUnits="userSpaceOnUse" id="cp1">
			<path d="M-44 -604L368 -604L368 243L-44 243Z" />
		</clipPath>
	</defs>
	<style>
		tspan { white-space:pre }
		.shp0 { fill: #000000 } 
	</style>
	<g id="Login with Email" clip-path="url(#cp1)">
		<g id="email (2)">
			<g id="Group 2">
				<g id="Group 1">
					<path id="Path 1" class="shp0" d="M12.09 11.41C11.89 11.53 11.67 11.58 11.47 11.58C11.27 11.58 11.05 11.53 10.85 11.41L0.96 5.37L0.96 13.39C0.96 15.11 2.35 16.5 4.07 16.5L18.89 16.5C20.61 16.5 22 15.11 22 13.39L22 5.37L12.09 11.41Z" />
				</g>
			</g>
			<g id="Group 4">
				<g id="Group 3">
					<path id="Path 2" class="shp0" d="M18.89 1L4.07 1C2.6 1 1.36 2.04 1.06 3.43L11.49 9.79L21.9 3.43C21.6 2.04 20.36 1 18.89 1Z" />
				</g>
			</g>
		</g>
	</g>
</svg>